<?xml version="1.0" encoding="utf-8"?>
<!-- Generator: Adobe Illustrator 26.3.1, SVG Export Plug-In . SVG Version: 6.00 Build 0)  -->
<svg version="1.1" xmlns="http://www.w3.org/2000/svg" xmlns:xlink="http://www.w3.org/1999/xlink" x="0px" y="0px"
	 viewBox="0 0 1845.5 1336.5" style="enable-background:new 0 0 1845.5 1336.5;" xml:space="preserve">
<style type="text/css">
	.st0{display:none;}
	.st1{display:inline;stroke:#000000;stroke-miterlimit:10;}
	.st2{fill:#FFFFFF;}
	.st3{font-family:'TradeGothicLTStd-BoldExt';}
	.st4{font-size:68px;}
	.st5{font-family:'TradeGothicLTStd-Bd2';}
	.st6{font-size:23px;}
	.st7{stroke:#FFFFFF;}
	.st8{font-size:34px;}
	.st9{font-size:29px;}
	.st10{font-size:25px;}
</style>
<g id="Layer_2" class="st0">
	<rect x="-48.3" y="-31.8" class="st1" width="1938.2" height="1415.6"/>
</g>
<g id="Layer_1">
	<g id="Group_16560" transform="translate(-135.534 -149.501)">
		<text transform="matrix(1 0 0 1 573.8083 661)" class="st2 st3 st4">Is the answer to anaemia </text>
		<text transform="matrix(1 0 0 1 658.1258 747)" class="st2 st3 st4">of CKD in his blood?</text>
		<text transform="matrix(1 0 0 1 136 1422)" class="st2 st5 st6">MAT-NL-EVZ-2022-00020</text>
		<text transform="matrix(1 0 0 1 136 1451)" class="st2 st5 st6">Date of preparation: October 2022</text>
		<text transform="matrix(1 0 0 1 136 1480)" class="st2 st5 st6">Date of expiry: October 2024</text>
		<g id="Group_13710" transform="translate(112.047 132.111)">
			<g id="Group_13710-2" transform="translate(23.487 29.018)">
				<path id="Path_74634" class="st2" d="M37.8,90.9H42v6h0.1c2.3-4.2,4.9-6.5,9.9-6.5v4.2c-5.3,0.1-8,3.6-10,9.8v16.9h-4.2V90.9z"
					/>
				<path id="Path_74635" class="st2" d="M65.8,121.9c-8.3,0-12.5-7-12.5-15.8s4.2-15.8,12.5-15.8s12.5,7,12.5,15.8
					S74.1,121.9,65.8,121.9 M65.8,93.9c-5,0-8.3,4.3-8.3,12.2s3.2,12.2,8.3,12.2s8.3-4.3,8.3-12.2S70.8,93.9,65.8,93.9"/>
				<path id="Path_74636" class="st2" d="M91.2,101.7l6.4-10.8h4.7l-8.5,14.5l9.9,16h-4.9l-7.6-12.5l-7.4,12.5h-4.7l9.6-16
					l-8.9-14.5h4.7L91.2,101.7z"/>
				<path id="Path_74637" class="st2" d="M105.6,96.7c2.3-4.1,6.7-6.6,11.4-6.4c5.1,0,10.5,2.5,10.5,9.1v15.3
					c-0.1,2.2,0.2,4.4,0.7,6.6h-4.3l-0.5-4.2c-2.5,3-6.2,4.7-10.1,4.8c-4.7,0-8.7-2.8-8.7-8.4c0-6.7,5.1-10,18.6-12.4v-1.6
					c0-4-2.6-5.6-6.3-5.6c-4.7,0-7,2.7-7.8,4.7L105.6,96.7z M123.4,104.8c-9.7,1.7-14.4,4.5-14.4,8.7c0,2.8,2.7,4.7,5,4.7
					c3,0,6.9-2.2,9.4-5L123.4,104.8z"/>
				<path id="Path_74638" class="st2" d="M156.9,79v35.6c-0.1,2.2,0,4.5,0.2,6.7h-3.9l-0.6-3c-2,2.4-4.9,3.7-8,3.6
					c-5.4,0-12.5-3.6-12.5-15.8c0-11.8,7.1-15.8,12.2-15.8c2.9,0,5.7,1.5,8,3.4l0.2,0.1V79H156.9z M152.7,98.1
					c-2.3-2.5-5.1-4.2-7.7-4.2c-4.9,0-8.6,3.2-8.6,12.4c0,7.7,3.3,11.9,8.6,11.9c2.7,0,4.7-1.2,7.7-4.1V98.1z"/>
				<path id="Path_74639" class="st2" d="M183.1,121.3v-4.1H183c-2.4,2.7-5.6,4.7-9,4.7c-4.5,0-8.8-2.3-8.8-8.9V90.9h4.2v22
					c0,4,1.9,5.4,5,5.4c3.2,0,6.8-2.6,8.7-4.6V90.9h4.2v30.4H183.1z"/>
				<path id="Path_74640" class="st2" d="M195.2,113.6c1.9,2.9,5.2,4.7,8.7,4.7c4.6,0,6.6-2.5,6.6-5c0-7.7-18-3.6-17.7-14.7
					c0.2-5.3,4.2-8.3,10.1-8.2c4,0.1,8.4,2.2,10.4,5.3l-2.9,2.6c-2.3-2.9-4.6-4.3-7.8-4.3c-3.6,0-5.5,1.8-5.5,4.5
					c0,6.6,17.7,3.2,17.7,14.6c0,5.9-5.1,8.9-10.7,8.9c-4.7,0.1-9.2-2.1-12.2-5.8L195.2,113.6z"/>
				<path id="Path_74641" class="st2" d="M220.4,90.9v-10h4.2v10h7v3.6h-7v21.7c0,1.4,1,2.1,3.5,2.1c1.3,0,2.5-0.1,3.7-0.3v3.5
					c-1.6,0.4-3.3,0.5-4.9,0.5c-4.6,0-6.5-1.2-6.5-5V94.5h-5v-3.6H220.4z"/>
				<path id="Path_74642" class="st2" d="M235.2,96.7c2.3-4.1,6.7-6.6,11.4-6.4c5.1,0,10.5,2.5,10.5,9.1v15.3
					c-0.1,2.2,0.2,4.4,0.7,6.6h-4.3l-0.5-4.2c-2.5,3-6.2,4.7-10.1,4.8c-4.7,0-8.7-2.8-8.7-8.4c0-6.7,5.1-10,18.6-12.4v-1.6
					c0-4-2.6-5.6-6.3-5.6c-4.7,0-7,2.7-7.8,4.7L235.2,96.7z M252.9,104.8c-9.7,1.7-14.4,4.5-14.4,8.7c0,2.8,2.7,4.7,5,4.7
					c3,0,6.9-2.2,9.4-5L252.9,104.8z"/>
				<path id="Path_74643" class="st2" d="M265.1,90.9v-10h4.2v10h7v3.6h-7v21.7c0,1.4,1,2.1,3.5,2.1c1.3,0,2.5-0.1,3.7-0.3v3.5
					c-1.6,0.4-3.3,0.5-4.9,0.5c-4.6,0-6.5-1.2-6.5-5V94.5h-5v-3.6H265.1z"/>
				<path id="Path_74644" class="st2" d="M322.7,31.7l38.7-16.3c7.6,5,13,11.4,14,17.8L322.7,31.7z"/>
				<path id="Path_74645" class="st2" d="M308.7,0c-0.1,0-0.3,0-0.4,0c-18.1,0-13.2,9.7-7.8,20L308.7,0z"/>
				<path id="Path_74646" class="st2" d="M356.8,12.7C350,9,342.7,6,335.1,4l-20.4,22.1L356.8,12.7z"/>
				<path id="Path_74647" class="st2" d="M306.5,26.9l24.1-24.1c-6.4-1.5-12.8-2.5-19.4-2.8L306.5,26.9z"/>
				<path id="Path_74648" class="st2" d="M336,66.2c7.7-2.2,15.1-5.2,22-9.1l-43.3-14L336,66.2z"/>
				<path id="Path_74649" class="st2" d="M322.7,38l39.7,17c7.3-5.8,12.3-12.2,13.1-18.6L322.7,38z"/>
				<path id="Path_74650" class="st2" d="M301,49.4c-5.6,10.6-11.2,21,7.4,21c0.4,0,0.8,0,1.3,0L301,49.4z"/>
				<path id="Path_74651" class="st2" d="M311.6,70.4c6.7-0.3,13.4-1.3,19.9-3l-24.8-24.8L311.6,70.4z"/>
				<path id="Path_74652" class="st2" d="M0,69.6V6.9h36.1v9.2H10.8v16.3h22v9.2h-22v18.7h26.6v9.2L0,69.6z"/>
				<path id="Path_74653" class="st2" d="M69.3,22.9h9.9L64.5,69.6H55L40.3,22.9h9.9l9.4,33h0.3L69.3,22.9z"/>
				<path id="Path_74654" class="st2" d="M86.6,69.6V22.9h9.1v4.7h0.3c4-3.1,6.9-5.6,12.3-5.6l0.9,9.8c-1-0.2-2.1-0.3-3.1-0.3
					c-3.5,0.2-7,1.3-9.9,3.3v34.7H86.6z"/>
				<path id="Path_74655" class="st2" d="M149.5,48.9h-25.7v6.8c0,5.1,2.9,6.9,8,6.9c4.8,0,8.1-1,8.1-6.7l9.6,0.9
					c-0.3,10.4-7.9,13.7-17.7,13.7c-11,0-17.6-3.9-17.6-14.9V37.2c0-11,6.6-15.2,17.6-15.2c11,0,17.7,4.2,17.7,15.2L149.5,48.9z
					 M139.8,40.9V37c0-5.2-2.9-7.1-8-7.1c-5.1,0-8,2-8,7.1v3.9H139.8z"/>
				<path id="Path_74656" class="st2" d="M159.5,69.6V22.9h9.1v4.6h0.3c3.8-3,7.8-5.5,12.8-5.5c8.1,0,11.5,5.2,11.5,13.5v34.1h-9.7
					V37.7c0-4.5-1.1-7.2-5.6-7.2c-3,0-6.1,2-8.8,4.3v34.7H159.5z"/>
				<path id="Path_74657" class="st2" d="M200.7,30.9v-8h33.6v8l-22.8,30.3v0.4h23.3v8H200v-8l22.7-30.3v-0.4H200.7z"/>
				<path id="Path_74658" class="st2" d="M240.5,36.7c0-11,6.8-14.7,17.8-14.7s17.9,3.6,17.9,14.7v18.9c0,10.7-6.5,14.8-17.9,14.8
					s-17.8-4.2-17.8-14.8V36.7z M250.1,55.8c0,5.1,3,6.8,8.2,6.8s8.2-1.7,8.2-6.8v-19c0-5.1-3-6.9-8.2-6.9s-8.2,1.7-8.2,6.9V55.8z"
					/>
				<path id="Path_74659" class="st2" d="M279.6,23.3h-2.1V22h5.6v1.3h-2.1v5.6h-1.5L279.6,23.3z"/>
				<path id="Path_74660" class="st2" d="M284,22h2.1l1.6,4.7h0l1.5-4.7h2.1v6.9H290V24h0l-1.7,4.9h-1.2l-1.7-4.8h0v4.8H284L284,22z
					"/>
			</g>
			<path id="Polygon_1" class="st7" d="M403.8,45.6l-15.6-27.7h31.2L403.8,45.6z"/>
		</g>
		<g id="Group_16554">
			<text transform="matrix(1 0 0 1 720.383 279)" class="st2 st5 st8">EVRENZO (roxadustat) IS NOT APPROVED FOR </text>
			<text transform="matrix(1 0 0 1 851.198 312)" class="st2 st5 st8">USE IN THE UNITED STATES</text>
			<text transform="matrix(1 0 0 1 720.816 228)" class="st2 st5 st9">This information is intended for international audiences.</text>
			<text transform="matrix(1 0 0 1 745.203 371)" class="st2 st5 st10">EVRENZO (roxadustat) has marketing authorisations in Japan, </text>
			<text transform="matrix(1 0 0 1 773.653 401)" class="st2 st5 st10">the European Union (EU) and the United Kingdom (UK),</text>
			<text transform="matrix(1 0 0 1 790.478 431)" class="st2 st5 st10">Turkey, Russia, South Africa, Egypt, UAE and Kuwait.</text>
		</g>
		<g id="Group_16552" transform="translate(0 -26)">
			<text transform="matrix(1 0 0 1 136 1252)" class="st2 st5 st6">This information is intended for international Healthcare Professionals and was created by Astellas Pharma Inc.</text>
			<text transform="matrix(1 0 0 1 136 1286)" class="st2 st5 st6">    This medication is subject to additional monitoring.</text>
			<text transform="matrix(1 0 0 1 136 1320)" class="st2 st5 st6">For adverse events reporting, please contact: Pharmacovigilance.EST-C@astellas.com</text>
			<text transform="matrix(1 0 0 1 136 1354)" class="st2 st5 st6">EVRENZO™ is only available by prescription.</text>
			<text transform="matrix(1 0 0 1 136 1388)" class="st2 st5 st6">Prescribing information may vary. Please refer to your local prescribing information.</text>
			<path id="Polygon_2" d="M146.5,1289l-10.5-19h21L146.5,1289z"/>
		</g>
		<text transform="matrix(1 0 0 1 1357.0001 1444)" class="st2 st5 st6">© October 2022 Astellas Pharma Inc. or its affiliates.</text>
		<text transform="matrix(1 0 0 1 1357.0001 1473)" class="st2 st5 st6">All trademarks are the property of their respective owners.</text>
	</g>
</g>
</svg>
