<svg xmlns="http://www.w3.org/2000/svg" width="43.843" height="43.843" viewBox="422 382.838 43.843 43.843"><g data-name="Group 13704"><path d="M443.922 382.838a21.922 21.922 0 0 1 21.921 21.922 21.922 21.922 0 0 1-21.921 21.921A21.922 21.922 0 0 1 422 404.76a21.922 21.922 0 0 1 21.922-21.922z" fill="#007a33" fill-rule="evenodd" data-name="Rectangle 17593"/><path d="m439.529 408.093 12.524-12.524a2.761 2.761 0 0 1 3.905 3.904l-14.463 14.463-.014.014a2.762 2.762 0 0 1-3.905 0l-.52-.52-5.17-5.17a2.761 2.761 0 0 1 3.905-3.905l3.738 3.738Z" fill="#fffffe" fill-rule="evenodd" data-name="Path 74631"/></g></svg>