<svg xmlns="http://www.w3.org/2000/svg" width="395.938" height="133" viewBox="135.534 150.001 395.938 133"><g data-name="Group 13710"><g data-name="Group 13710"><path d="M173.338 251.984h4.213v6.026h.118c2.34-4.153 4.857-6.495 9.89-6.495v4.215c-5.268.115-8.018 3.57-10.008 9.831v16.854h-4.213v-30.43Z" fill="#fff" fill-rule="evenodd" data-name="Path 74634"/><path d="M201.308 283c-8.309 0-12.466-7.023-12.466-15.8 0-8.78 4.157-15.802 12.466-15.802 8.31 0 12.466 7.022 12.466 15.802 0 8.777-4.156 15.8-12.466 15.8m0-27.974c-5.032 0-8.251 4.33-8.251 12.174 0 7.839 3.219 12.171 8.25 12.171 5.035 0 8.254-4.332 8.254-12.171 0-7.844-3.22-12.174-8.253-12.174" fill="#fff" fill-rule="evenodd" data-name="Path 74635"/><path d="m226.705 262.81 6.378-10.828h4.741l-8.545 14.456 9.891 15.977h-4.859l-7.606-12.464-7.374 12.464h-4.74l9.597-15.977-8.895-14.456h4.74l6.672 10.828Z" fill="#fff" fill-rule="evenodd" data-name="Path 74636"/><path d="M241.155 257.835c1.932-3.509 5.676-6.435 11.414-6.435 5.147 0 10.531 2.457 10.531 9.13v15.332c0 3.336.294 4.974.704 6.553h-4.332l-.468-4.213c-2.105 2.34-5.5 4.8-10.066 4.8-4.682 0-8.66-2.81-8.66-8.369 0-6.672 5.092-10.008 18.61-12.408v-1.638c0-4.038-2.635-5.559-6.262-5.559-4.682 0-6.964 2.692-7.783 4.74l-3.688-1.933Zm17.732 8.136c-9.656 1.696-14.396 4.507-14.396 8.72 0 2.81 2.692 4.682 5.032 4.682 3.046 0 6.907-2.225 9.364-5.032v-8.37Z" fill="#fff" fill-rule="evenodd" data-name="Path 74637"/><path d="M292.415 240.163v35.582c0 2.222-.115 4.447.235 6.67h-3.863l-.584-2.984c-1.404 1.932-4.388 3.57-8.019 3.57-5.384 0-12.463-3.63-12.463-15.8 0-11.823 7.08-15.803 12.23-15.803 2.868 0 5.677 1.465 8.017 3.395l.235.118v-14.748h4.212Zm-4.212 19.078c-2.283-2.517-5.15-4.213-7.667-4.213-4.915 0-8.603 3.219-8.603 12.406 0 7.724 3.337 11.937 8.603 11.937 2.692 0 4.682-1.169 7.667-4.095V259.24Z" fill="#fff" fill-rule="evenodd" data-name="Path 74638"/><path d="M318.633 282.415v-4.098h-.117c-2.398 2.692-5.559 4.683-9.012 4.683-4.505 0-8.778-2.34-8.778-8.896v-22.12h4.213v22.003c0 4.04 1.93 5.384 4.974 5.384 3.162 0 6.79-2.573 8.72-4.622v-22.765h4.213v30.431h-4.213Z" fill="#fff" fill-rule="evenodd" data-name="Path 74639"/><path d="M330.743 274.691c1.99 2.867 4.915 4.68 8.72 4.68 4.565 0 6.553-2.457 6.553-5.032 0-7.726-18.022-3.628-17.672-14.748.177-5.265 4.212-8.251 10.066-8.193 3.98.06 8.368 2.224 10.418 5.326l-2.927 2.575c-2.342-2.867-4.565-4.27-7.841-4.27-3.571 0-5.504 1.812-5.504 4.504 0 6.613 17.675 3.219 17.675 14.571 0 5.911-5.15 8.896-10.65 8.896-4.74 0-9.365-2.048-12.174-5.794l3.336-2.515Z" fill="#fff" fill-rule="evenodd" data-name="Path 74640"/><path d="M355.963 251.984v-10.008h4.213v10.008h7.024v3.629h-7.024v21.653c0 1.405.996 2.107 3.455 2.107 1.404 0 2.633-.117 3.744-.292v3.451c-.761.235-2.457.47-4.917.47-4.564 0-6.495-1.172-6.495-5.033v-22.356h-4.974v-3.629h4.974Z" fill="#fff" fill-rule="evenodd" data-name="Path 74641"/><path d="M370.707 257.835c1.933-3.509 5.677-6.435 11.414-6.435 5.148 0 10.532 2.457 10.532 9.13v15.332c0 3.336.294 4.974.704 6.553h-4.333l-.467-4.213c-2.105 2.34-5.501 4.8-10.066 4.8-4.682 0-8.66-2.81-8.66-8.369 0-6.672 5.091-10.008 18.609-12.408v-1.638c0-4.038-2.635-5.559-6.26-5.559-4.683 0-6.965 2.692-7.785 4.74l-3.688-1.933Zm17.733 8.136c-9.657 1.696-14.397 4.507-14.397 8.72 0 2.81 2.692 4.682 5.033 4.682 3.045 0 6.906-2.225 9.364-5.032v-8.37Z" fill="#fff" fill-rule="evenodd" data-name="Path 74642"/><path d="M400.61 251.984v-10.008h4.212v10.008h7.024v3.629h-7.024v21.653c0 1.405.996 2.107 3.456 2.107 1.403 0 2.632-.117 3.743-.292v3.451c-.761.235-2.457.47-4.916.47-4.565 0-6.496-1.172-6.496-5.033v-22.356h-4.974v-3.629h4.974Z" fill="#fff" fill-rule="evenodd" data-name="Path 74643"/><path d="m458.189 192.846 38.657-16.325c7.633 5.038 12.963 11.395 14.029 17.844l-52.686-1.519Z" fill="#fff" fill-rule="evenodd" data-name="Path 74644"/><path d="M444.28 161.137c-.138 0-.28-.008-.418-.008-18.055 0-13.23 9.734-7.816 20.019l8.233-20.011Z" fill="#fff" fill-rule="evenodd" data-name="Path 74645"/><path d="M492.375 173.818c-6.42-3.567-13.953-6.532-21.713-8.7l-20.426 22.14 42.139-13.44Z" fill="#fff" fill-rule="evenodd" data-name="Path 74646"/><path d="m442.009 188.05 24.11-24.11c-6.598-1.558-13.233-2.517-19.37-2.75l-4.74 26.86Z" fill="#fff" fill-rule="evenodd" data-name="Path 74647"/><path d="M471.537 227.343c7.94-2.285 15.595-5.412 22.035-9.148l-43.336-13.959 21.301 23.107Z" fill="#fff" fill-rule="evenodd" data-name="Path 74648"/><path d="m458.187 199.17 39.729 17.035c7.315-5.821 12.319-12.151 13.074-18.553l-52.803 1.519Z" fill="#fff" fill-rule="evenodd" data-name="Path 74649"/><path d="M436.502 210.55c-5.581 10.6-11.208 21.022 7.362 21.022.42 0 .849-.016 1.274-.024l-8.636-20.997Z" fill="#fff" fill-rule="evenodd" data-name="Path 74650"/><path d="M447.115 231.492c6.314-.27 13.133-1.298 19.895-2.954l-24.79-24.79 4.895 27.744Z" fill="#fff" fill-rule="evenodd" data-name="Path 74651"/><path d="M135.534 230.706v-62.67h36.11v9.202h-25.346v16.319h22.045v9.201h-22.045v18.747h26.56v9.2h-37.324Z" fill="#fff" fill-rule="evenodd" data-name="Path 74652"/><path d="M204.88 184.009h9.896l-14.756 46.698h-9.46l-14.758-46.698h9.897l9.372 32.984h.348l9.462-32.984Z" fill="#fff" fill-rule="evenodd" data-name="Path 74653"/><path d="M222.148 230.705v-46.698h9.114v4.688h.347c3.993-3.125 6.943-5.553 12.325-5.553l.869 9.806s-1.302-.26-3.125-.26c-2.865 0-6.77 1.214-9.896 3.298v34.719h-9.634Z" fill="#fff" fill-rule="evenodd" data-name="Path 74654"/><path d="M285.075 210.048h-25.693v6.77c0 5.121 2.865 6.857 7.985 6.857 4.775 0 8.074-1.042 8.074-6.684l9.634.868c-.26 10.416-7.899 13.715-17.708 13.715-11.023 0-17.62-3.907-17.62-14.93V198.33c0-11.025 6.597-15.188 17.62-15.188 11.024 0 17.708 4.163 17.708 15.188v11.718Zm-9.722-7.987v-3.906c0-5.207-2.863-7.118-7.986-7.118-5.12 0-7.985 1.998-7.985 7.118v3.906h15.971Z" fill="#fff" fill-rule="evenodd" data-name="Path 74655"/><path d="M295.052 230.705v-46.698h9.114v4.6h.347c3.82-3.037 7.812-5.465 12.76-5.465 8.072 0 11.544 5.205 11.544 13.45v34.113h-9.722V198.85c0-4.513-1.128-7.205-5.64-7.205-3.04 0-6.079 1.997-8.769 4.34v34.72h-9.634Z" fill="#fff" fill-rule="evenodd" data-name="Path 74656"/><path d="M336.276 191.994v-7.985h33.59v7.985l-22.826 30.293v.434H370.3v7.986h-34.807v-7.986l22.741-30.292v-.435h-21.96Z" fill="#fff" fill-rule="evenodd" data-name="Path 74657"/><path d="M376.026 197.809c0-11.023 6.771-14.667 17.794-14.667 11.022 0 17.88 3.644 17.88 14.667v18.923c0 10.674-6.51 14.842-17.88 14.842s-17.794-4.168-17.794-14.842v-18.923Zm9.634 19.096c0 5.122 3.038 6.77 8.16 6.77 5.121 0 8.157-1.734 8.157-6.77v-19.009c0-5.121-3.036-6.857-8.157-6.857-5.122 0-8.16 1.736-8.16 6.857v19.009Z" fill="#fff" fill-rule="evenodd" data-name="Path 74658"/><path d="M415.165 184.435h-2.056v-1.268h5.624v1.268h-2.057v5.595h-1.511v-5.595Z" fill="#fff" fill-rule="evenodd" data-name="Path 74659"/><path d="M419.521 183.165h2.125l1.605 4.72h.02l1.52-4.72h2.124v6.866h-1.414v-4.865h-.02l-1.682 4.865h-1.163l-1.682-4.818h-.02v4.818h-1.413v-6.866Z" fill="#fff" fill-rule="evenodd" data-name="Path 74660"/></g><g data-name="Polygon 1"><path d="m515.885 177.712-15.587-27.71h31.174l-15.587 27.71Z" fill-rule="evenodd"/><path d="m515.885 177.712-15.587-27.71h31.174l-15.587 27.71Z" stroke-linejoin="round" stroke-linecap="round" stroke="#fff" fill="transparent"/></g></g></svg>