<?xml version="1.0" encoding="utf-8"?>
<!-- Generator: Adobe Illustrator 26.3.1, SVG Export Plug-In . SVG Version: 6.00 Build 0)  -->
<svg version="1.1" id="Layer_1" xmlns="http://www.w3.org/2000/svg" xmlns:xlink="http://www.w3.org/1999/xlink" x="0px" y="0px"
	 viewBox="0 0 345 51" style="enable-background:new 0 0 345 51;" xml:space="preserve">
<style type="text/css">
	.st0{enable-background:new    ;}
	.st1{fill:#FFFFFF;}
</style>
<g class="st0">
	<path class="st1" d="M16.9,0.8c4,0,5,2.1,5,3.7c0,1.5-0.6,2.8-2.3,3.4c2,0.8,2.7,1.7,2.7,4c0,2.6-2.1,4-5.4,4h-5.7V0.8H16.9z
		 M17,6.9c1.2,0,2-0.7,2-1.8c0-1.2-0.9-1.8-2-1.8h-3v3.7H17z M17,13.6c1.5,0,2.3-0.7,2.3-2.2c0-1.5-0.8-2.2-2.3-2.2h-3v4.4H17z"/>
	<path class="st1" d="M26.3,5.1l1.8,6.7h0L30,5.1h2.6L29.2,16c-0.2,0.6-0.5,1.4-1,2.2C27.4,19.6,26.4,20,25,20c-0.4,0-0.7,0-1.2-0.1
		v-2.1c0.4,0.1,0.9,0.1,1.2,0.1c0.4,0,1-0.1,1.3-0.5c0.3-0.3,0.7-1.2,0.7-1.6c0-0.2,0-0.4-0.1-0.5L23.7,5.1H26.3z"/>
	<path class="st1" d="M48.8,7.8l-2.2,0.8C46.1,7.4,45.5,7,44.5,7c-1.4,0-2.1,1.1-2.1,3.6c0,2.5,0.7,3.6,2.2,3.6
		c0.9,0,1.6-0.5,2.3-1.7l2,1.1c-1,1.8-2.2,2.7-4.3,2.7c-3,0-4.8-2.2-4.8-5.7c0-3.5,1.8-5.7,4.7-5.7C46.5,4.9,48.2,5.9,48.8,7.8z"/>
	<path class="st1" d="M54,0.8V16h-2.6V0.8H54z"/>
	<path class="st1" d="M59.8,0.6v2.4h-2.6V0.6H59.8z M59.8,5.1V16h-2.6V5.1H59.8z"/>
	<path class="st1" d="M71,7.8l-2.2,0.8C68.3,7.4,67.7,7,66.7,7c-1.4,0-2.1,1.1-2.1,3.6c0,2.5,0.7,3.6,2.2,3.6c0.9,0,1.6-0.5,2.3-1.7
		l2,1.1c-1,1.8-2.2,2.7-4.3,2.7c-3,0-4.8-2.2-4.8-5.7c0-3.5,1.8-5.7,4.7-5.7C68.7,4.9,70.3,5.9,71,7.8z"/>
	<path class="st1" d="M75.9,0.8v8.5h0.1l3.2-4.2h3l-3.2,4.1l3.4,6.8h-2.8l-2.4-4.9l-1.3,1.5V16h-2.6V0.8H75.9z"/>
	<path class="st1" d="M86.6,0.6v2.4H84V0.6H86.6z M86.6,5.1V16H84V5.1H86.6z"/>
	<path class="st1" d="M98.6,8.5V16H96V8.8C96,7.6,95.6,7,94.6,7c-0.9,0-1.8,0.4-2.4,1.2V16h-2.6V5.1H92v1.2c1.3-0.9,2.4-1.4,3.4-1.4
		C97.5,4.9,98.6,6.3,98.6,8.5z"/>
	<path class="st1" d="M110.2,4.9v1.8c-0.7,0-1.3,0-1.7,0.3c0.3,0.5,0.6,1.1,0.6,1.9c0,2.3-1.6,3.5-4.2,3.5c-1.8,0-2,0.4-2,0.7
		c0,0.5,0.5,0.8,2.4,0.8c1.8,0.1,3,0.3,3.8,0.8s1,1.2,1,2.1c0,1.8-2,3.2-5.1,3.2c-3.1,0-4.9-1-4.9-2.6c0-1.2,0.8-2,2-2v0
		c-1.2-0.5-1.6-1-1.6-1.8c0-0.9,0.8-1.7,1.7-2c-1.2-0.9-1.6-1.8-1.6-2.9c0-2.1,1.7-3.8,4.3-3.8c0.9,0,2,0.4,2.7,1
		c0.5-0.6,1.2-1,2.3-1H110.2z M105.4,18.3c1.5,0,2.3-0.7,2.3-1.2c0-0.7-1.1-1.3-3.3-1.3c-1.2,0-1.8,0.6-1.8,1.3
		C102.6,18,103.4,18.3,105.4,18.3z M104.9,10.4c1,0,1.8-0.8,1.8-1.8s-0.8-1.8-1.8-1.8c-1,0-1.9,0.8-1.9,1.8
		C103,9.6,103.8,10.4,104.9,10.4z"/>
	<path class="st1" d="M120.4,0.6l-1.1,3.1h1.3v3h-2.9v-3l1.3-3.1H120.4z M125.1,0.6L124,3.8h1.3v3h-2.9v-3l1.3-3.1H125.1z"/>
	<path class="st1" d="M137.6,4.1L135,4.9c-0.5-1.3-1.4-2-2.7-2c-1.4,0-2.2,0.6-2.2,1.7s1.5,1.7,3.2,2.3c3.7,1.4,4.6,2.9,4.6,4.7
		c0,3-1.9,4.6-5.3,4.6c-2.5,0-4.8-1.4-5.7-3.6l2.4-1c0.8,1.7,1.8,2.4,3.3,2.4c1.7,0,2.6-0.7,2.6-2c0-1.3-1.3-1.9-3.7-2.9
		c-2.3-0.9-4.1-2-4.1-4.2c0-2.5,2.1-4.2,4.9-4.2C134.7,0.6,136.7,1.9,137.6,4.1z"/>
	<path class="st1" d="M143.4,1.5v3.6h2.1v2.1h-2.1v6.2c0,0.5,0.2,0.7,0.9,0.7c0.4,0,0.9-0.1,1.2-0.2V16c-0.7,0.1-1.3,0.2-2.1,0.2
		c-1.8,0-2.7-0.9-2.7-2.5V7.2h-1.5V5.1h1.5V1.5H143.4z"/>
	<path class="st1" d="M155.2,9.2v5.3c0,0.4,0,1,0.2,1.5h-2.5l-0.2-0.9c-1.1,0.8-2.2,1.2-3.4,1.2c-1.8,0-3-1.2-3-2.9
		c0-2.5,2.1-3.8,6.3-4.3V8.1c0-0.8-0.7-1.3-1.6-1.3c-0.9,0-1.7,0.4-2.4,1.3l-1.7-1.3c0.7-1.1,2.3-2,4-2C154,4.9,155.2,6.1,155.2,9.2
		z M150.2,14.3c0.7,0,1.6-0.5,2.4-1.2v-2.4c-3,0.5-3.7,1.3-3.7,2.2C149,13.8,149.5,14.3,150.2,14.3z"/>
	<path class="st1" d="M163.2,7.6c-0.1,0-0.2,0-0.5,0c-1.2,0-2.4,1.4-2.4,1.8V16h-2.6V5.1h2.4V7h0c0.7-1.3,1.5-2,3.1-2.1V7.6z"/>
	<path class="st1" d="M167.8,1.5v3.6h2.1v2.1h-2.1v6.2c0,0.5,0.2,0.7,0.9,0.7c0.4,0,0.9-0.1,1.2-0.2V16c-0.7,0.1-1.3,0.2-2.1,0.2
		c-1.8,0-2.7-0.9-2.7-2.5V7.2h-1.5V5.1h1.5V1.5H167.8z"/>
	<path class="st1" d="M174.2,0.8v3L172.9,7h-1.4l1.1-3.1h-1.3v-3H174.2z M178.9,0.8v3L177.6,7h-1.4l1.1-3.1H176v-3H178.9z"/>
	<path class="st1" d="M189,5.1l1.8,6.7h0l1.9-6.7h2.6L191.9,16c-0.2,0.6-0.5,1.4-1,2.2c-0.8,1.4-1.8,1.8-3.3,1.8
		c-0.4,0-0.7,0-1.2-0.1v-2.1c0.4,0.1,0.9,0.1,1.2,0.1c0.4,0,1-0.1,1.3-0.5c0.3-0.3,0.7-1.2,0.7-1.6c0-0.2,0-0.4-0.1-0.5l-3.2-10.2
		H189z"/>
	<path class="st1" d="M205.5,10.5c0,3.4-1.8,5.7-4.7,5.7c-2.9,0-4.7-2.2-4.7-5.7c0-3.5,1.8-5.7,4.7-5.7S205.5,7,205.5,10.5z
		 M200.8,14.1c1.4,0,2.1-1.1,2.1-3.6c0-2.4-0.7-3.6-2.1-3.6c-1.5,0-2.1,1.2-2.1,3.6C198.6,13,199.3,14.1,200.8,14.1z"/>
	<path class="st1" d="M210,5.1v7.1c0,1.2,0.3,1.9,1.3,1.9c0.9,0,1.8-0.4,2.4-1.2V5.1h2.6V16H214v-1.2c-1.3,0.9-2.4,1.4-3.4,1.4
		c-2.1,0-3.2-1.4-3.2-3.6V5.1H210z"/>
	<path class="st1" d="M233.6,7.8l-2.2,0.8C231,7.4,230.4,7,229.3,7c-1.4,0-2.1,1.1-2.1,3.6c0,2.5,0.7,3.6,2.2,3.6
		c0.9,0,1.6-0.5,2.3-1.7l2,1.1c-1,1.8-2.2,2.7-4.3,2.7c-3,0-4.8-2.2-4.8-5.7c0-3.5,1.8-5.7,4.7-5.7C231.4,4.9,233,5.9,233.6,7.8z"/>
	<path class="st1" d="M244.6,10.5c0,3.4-1.8,5.7-4.7,5.7c-2.9,0-4.7-2.2-4.7-5.7c0-3.5,1.8-5.7,4.7-5.7S244.6,7,244.6,10.5z
		 M239.8,14.1c1.4,0,2.1-1.1,2.1-3.6c0-2.4-0.7-3.6-2.1-3.6c-1.5,0-2.1,1.2-2.1,3.6C237.7,13,238.4,14.1,239.8,14.1z"/>
	<path class="st1" d="M255.4,8.5V16h-2.6V8.8c0-1.2-0.4-1.8-1.3-1.8c-0.9,0-1.8,0.4-2.4,1.2V16h-2.6V5.1h2.4v1.2
		c1.3-0.9,2.4-1.4,3.4-1.4C254.3,4.9,255.4,6.3,255.4,8.5z"/>
	<path class="st1" d="M263.3,0.6v2.1h-0.7c-1.4,0-1.5,0.5-1.5,1.3v1h2.2v2.1h-2.2V16h-2.6V7.2H257V5.1h1.5V3.7c0-2.2,0.9-3,3-3
		H263.3z M267.1,0.6v2.4h-2.6V0.6H267.1z M267.1,5.1V16h-2.6V5.1H267.1z"/>
	<path class="st1" d="M275.1,7.6c-0.1,0-0.2,0-0.5,0c-1.2,0-2.4,1.4-2.4,1.8V16h-2.6V5.1h2.4V7h0c0.7-1.3,1.5-2,3.1-2.1V7.6z"/>
	<path class="st1" d="M285.1,6.5c1.2-1.2,2.3-1.6,3.7-1.6c1.7,0,2.7,1.3,2.7,3.2V16H289V8.3c0-0.9-0.5-1.3-1.3-1.3
		c-0.6,0-1.4,0.5-2.2,1.2V16h-2.6V8.3c0-0.9-0.5-1.3-1.3-1.3c-0.6,0-1.4,0.5-2.2,1.2V16h-2.6V5.1h2.4v1.2c1.1-1,1.9-1.4,3.3-1.4
		C283.6,4.9,284.6,5.5,285.1,6.5z"/>
	<path class="st1" d="M303.7,1.5v3.6h2.1v2.1h-2.1v6.2c0,0.5,0.2,0.7,0.9,0.7c0.4,0,0.9-0.1,1.2-0.2V16c-0.7,0.1-1.3,0.2-2.1,0.2
		c-1.8,0-2.7-0.9-2.7-2.5V7.2h-1.5V5.1h1.5V1.5H303.7z"/>
	<path class="st1" d="M310.3,0.8v5.4c1.1-0.9,2.1-1.4,3.1-1.4c2.1,0,3.2,1.4,3.2,3.6V16h-2.6V8.8c0-1.2-0.4-1.8-1.3-1.8
		c-0.9,0-1.8,0.4-2.4,1.2V16h-2.6V0.8H310.3z"/>
	<path class="st1" d="M327.2,9.2v5.3c0,0.4,0,1,0.2,1.5h-2.5l-0.2-0.9c-1.1,0.8-2.2,1.2-3.4,1.2c-1.8,0-3-1.2-3-2.9
		c0-2.5,2.1-3.8,6.3-4.3V8.1c0-0.8-0.7-1.3-1.6-1.3c-0.9,0-1.7,0.4-2.4,1.3L319,6.9c0.7-1.1,2.3-2,4-2C326,4.9,327.2,6.1,327.2,9.2z
		 M322.2,14.3c0.7,0,1.6-0.5,2.4-1.2v-2.4c-3,0.5-3.7,1.3-3.7,2.2C321,13.8,321.5,14.3,322.2,14.3z"/>
	<path class="st1" d="M332.9,1.5v3.6h2.1v2.1h-2.1v6.2c0,0.5,0.2,0.7,0.9,0.7c0.4,0,0.9-0.1,1.2-0.2V16c-0.7,0.1-1.3,0.2-2.1,0.2
		c-1.8,0-2.7-0.9-2.7-2.5V7.2h-1.5V5.1h1.5V1.5H332.9z"/>
</g>
<g class="st0">
	<path class="st1" d="M22.5,34.1l1.8,6.7h0l1.9-6.7h2.6L25.4,45c-0.2,0.6-0.5,1.4-1,2.2c-0.8,1.4-1.8,1.8-3.3,1.8
		c-0.4,0-0.7,0-1.2-0.1v-2.1c0.4,0.1,0.9,0.1,1.2,0.1c0.4,0,1-0.1,1.3-0.5c0.3-0.3,0.7-1.2,0.7-1.6c0-0.2,0-0.4-0.1-0.5l-3.2-10.2
		H22.5z"/>
	<path class="st1" d="M39,39.5c0,3.4-1.8,5.7-4.7,5.7c-2.9,0-4.7-2.2-4.7-5.7c0-3.5,1.8-5.7,4.7-5.7S39,36,39,39.5z M34.3,43.1
		c1.4,0,2.1-1.1,2.1-3.6c0-2.4-0.7-3.6-2.1-3.6c-1.5,0-2.1,1.2-2.1,3.6C32.1,42,32.9,43.1,34.3,43.1z"/>
	<path class="st1" d="M43.5,34.1v7.1c0,1.2,0.3,1.9,1.3,1.9c0.9,0,1.8-0.4,2.4-1.2v-7.9h2.6V45h-2.4v-1.2c-1.3,0.9-2.4,1.4-3.4,1.4
		c-2.1,0-3.2-1.4-3.2-3.6v-7.6H43.5z"/>
	<path class="st1" d="M66.8,38.2v5.3c0,0.4,0,1,0.2,1.5h-2.5l-0.2-0.9c-1.1,0.8-2.2,1.2-3.4,1.2c-1.8,0-3-1.2-3-2.9
		c0-2.5,2.1-3.8,6.3-4.3v-0.9c0-0.8-0.7-1.3-1.6-1.3c-0.9,0-1.7,0.4-2.4,1.3l-1.7-1.3c0.7-1.1,2.3-2,4-2
		C65.7,33.9,66.8,35.1,66.8,38.2z M61.9,43.3c0.7,0,1.6-0.5,2.4-1.2v-2.4c-3,0.5-3.7,1.3-3.7,2.2C60.6,42.8,61.1,43.3,61.9,43.3z"/>
	<path class="st1" d="M74.8,36.6c-0.1,0-0.2,0-0.5,0c-1.2,0-2.4,1.4-2.4,1.8V45h-2.6V34.1h2.4V36h0c0.7-1.3,1.5-2,3.1-2.1V36.6z"/>
	<path class="st1" d="M84.8,38.8V40h-6.6c0,2,0.9,3.1,2.3,3.1c0.9,0,1.6-0.3,2.4-1.3l1.9,1.2c-1,1.5-2.5,2.2-4.6,2.2
		c-2.9,0-4.6-2.2-4.6-5.7s1.8-5.7,4.8-5.7C83.4,33.9,84.8,36.6,84.8,38.8z M82.4,38.2c0-1.5-0.8-2.4-2.1-2.4c-1.2,0-2,0.8-2.1,2.4
		H82.4z"/>
	<path class="st1" d="M101.2,38.2v5.3c0,0.4,0,1,0.2,1.5h-2.5l-0.2-0.9c-1.1,0.8-2.2,1.2-3.4,1.2c-1.8,0-3-1.2-3-2.9
		c0-2.5,2.1-3.8,6.3-4.3v-0.9c0-0.8-0.7-1.3-1.6-1.3c-0.9,0-1.7,0.4-2.4,1.3L93,35.9c0.7-1.1,2.3-2,4-2
		C100,33.9,101.2,35.1,101.2,38.2z M96.2,43.3c0.7,0,1.6-0.5,2.4-1.2v-2.4C95.6,40.3,95,41,95,42C95,42.8,95.5,43.3,96.2,43.3z"/>
	<path class="st1" d="M113.6,29.8v6h5.8v-6h2.9V45h-2.9v-6.5h-5.8V45h-2.9V29.8H113.6z"/>
	<path class="st1" d="M133.8,38.8V40h-6.6c0,2,0.9,3.1,2.3,3.1c0.9,0,1.6-0.3,2.4-1.3l1.9,1.2c-1,1.5-2.5,2.2-4.6,2.2
		c-2.9,0-4.6-2.2-4.6-5.7s1.8-5.7,4.8-5.7C132.4,33.9,133.8,36.6,133.8,38.8z M131.4,38.2c0-1.5-0.8-2.4-2.1-2.4
		c-1.2,0-2,0.8-2.1,2.4H131.4z"/>
	<path class="st1" d="M143.8,38.2v5.3c0,0.4,0,1,0.2,1.5h-2.5l-0.2-0.9c-1.1,0.8-2.2,1.2-3.4,1.2c-1.8,0-3-1.2-3-2.9
		c0-2.5,2.1-3.8,6.3-4.3v-0.9c0-0.8-0.7-1.3-1.6-1.3c-0.9,0-1.7,0.4-2.4,1.3l-1.7-1.3c0.7-1.1,2.3-2,4-2
		C142.6,33.9,143.8,35.1,143.8,38.2z M138.8,43.3c0.7,0,1.6-0.5,2.4-1.2v-2.4c-3,0.5-3.7,1.3-3.7,2.2
		C137.6,42.8,138.1,43.3,138.8,43.3z"/>
	<path class="st1" d="M149.3,29.8V45h-2.6V29.8H149.3z"/>
	<path class="st1" d="M155.3,30.5v3.6h2.1v2.1h-2.1v6.2c0,0.5,0.2,0.7,0.9,0.7c0.4,0,0.9-0.1,1.2-0.2V45c-0.7,0.1-1.3,0.2-2.1,0.2
		c-1.8,0-2.7-0.9-2.7-2.5v-6.5h-1.5v-2.1h1.5v-3.6H155.3z"/>
	<path class="st1" d="M161.9,29.8v5.4c1.1-0.9,2.1-1.4,3.1-1.4c2.1,0,3.2,1.4,3.2,3.6V45h-2.6v-7.2c0-1.2-0.4-1.8-1.3-1.8
		c-0.9,0-1.8,0.4-2.4,1.2V45h-2.6V29.8H161.9z"/>
	<path class="st1" d="M179.1,36.8l-2.2,0.8c-0.5-1.2-1.1-1.7-2.1-1.7c-1.4,0-2.1,1.1-2.1,3.6c0,2.5,0.7,3.6,2.2,3.6
		c0.9,0,1.6-0.5,2.3-1.7l2,1.1c-1,1.8-2.2,2.7-4.3,2.7c-3,0-4.8-2.2-4.8-5.7c0-3.5,1.8-5.7,4.7-5.7
		C176.8,33.9,178.5,34.9,179.1,36.8z"/>
	<path class="st1" d="M189.3,38.2v5.3c0,0.4,0,1,0.2,1.5H187l-0.2-0.9c-1.1,0.8-2.2,1.2-3.4,1.2c-1.8,0-3-1.2-3-2.9
		c0-2.5,2.1-3.8,6.3-4.3v-0.9c0-0.8-0.7-1.3-1.6-1.3c-0.9,0-1.7,0.4-2.4,1.3l-1.7-1.3c0.7-1.1,2.3-2,4-2
		C188.1,33.9,189.3,35.1,189.3,38.2z M184.3,43.3c0.7,0,1.6-0.5,2.4-1.2v-2.4c-3,0.5-3.7,1.3-3.7,2.2
		C183.1,42.8,183.6,43.3,184.3,43.3z"/>
	<path class="st1" d="M197.3,36.6c-0.1,0-0.2,0-0.5,0c-1.2,0-2.4,1.4-2.4,1.8V45h-2.6V34.1h2.4V36h0c0.7-1.3,1.5-2,3.1-2.1V36.6z"/>
	<path class="st1" d="M207.3,38.8V40h-6.6c0,2,0.9,3.1,2.3,3.1c0.9,0,1.6-0.3,2.4-1.3l1.9,1.2c-1,1.5-2.5,2.2-4.6,2.2
		c-2.9,0-4.6-2.2-4.6-5.7s1.8-5.7,4.8-5.7C205.9,33.9,207.3,36.6,207.3,38.8z M204.9,38.2c0-1.5-0.8-2.4-2.1-2.4
		c-1.2,0-2,0.8-2.1,2.4H204.9z"/>
	<path class="st1" d="M221.5,29.8c3.4,0,5.3,1.5,5.3,4.5c0,3-1.9,4.5-5.3,4.5h-2.7V45h-2.9V29.8H221.5z M221.2,36.5
		c1.8,0,2.7-0.6,2.7-2.2s-1-2.2-2.7-2.2h-2.4v4.3H221.2z"/>
	<path class="st1" d="M234,36.6c-0.1,0-0.2,0-0.5,0c-1.2,0-2.4,1.4-2.4,1.8V45h-2.6V34.1h2.4V36h0c0.7-1.3,1.5-2,3.1-2.1V36.6z"/>
	<path class="st1" d="M244.3,39.5c0,3.4-1.8,5.7-4.7,5.7c-2.9,0-4.7-2.2-4.7-5.7c0-3.5,1.8-5.7,4.7-5.7S244.3,36,244.3,39.5z
		 M239.6,43.1c1.4,0,2.1-1.1,2.1-3.6c0-2.4-0.7-3.6-2.1-3.6c-1.5,0-2.1,1.2-2.1,3.6C237.4,42,238.1,43.1,239.6,43.1z"/>
	<path class="st1" d="M251.4,29.6v2.1h-0.7c-1.4,0-1.5,0.5-1.5,1.3v1h2.2v2.1h-2.2V45h-2.6v-8.8h-1.5v-2.1h1.5v-1.4c0-2.2,0.9-3,3-3
		H251.4z"/>
	<path class="st1" d="M261.5,38.8V40h-6.6c0,2,0.9,3.1,2.3,3.1c0.9,0,1.6-0.3,2.4-1.3l1.9,1.2c-1,1.5-2.5,2.2-4.6,2.2
		c-2.9,0-4.6-2.2-4.6-5.7s1.8-5.7,4.8-5.7C260.1,33.9,261.5,36.6,261.5,38.8z M259.1,38.2c0-1.5-0.8-2.4-2.1-2.4
		c-1.2,0-2,0.8-2.1,2.4H259.1z"/>
	<path class="st1" d="M270.6,35.5L269,37c-0.7-0.8-1.4-1.2-2-1.2c-1,0-1.5,0.4-1.5,1.1c0,0.6,0.6,1,2,1.4c2.7,0.9,3.5,1.9,3.5,3.6
		c0,2.1-1.5,3.3-4,3.3c-1.7,0-3.1-0.8-4.1-2.2l1.7-1.3c0.8,1.1,1.6,1.6,2.5,1.6s1.6-0.5,1.6-1.2c0-0.6-0.6-1-2-1.5
		c-2.6-0.9-3.4-1.9-3.4-3.5c0-2,1.6-3.2,3.6-3.2C268.2,33.9,269.6,34.4,270.6,35.5z"/>
	<path class="st1" d="M279.9,35.5l-1.6,1.4c-0.7-0.8-1.4-1.2-2-1.2c-1,0-1.5,0.4-1.5,1.1c0,0.6,0.6,1,2,1.4c2.7,0.9,3.5,1.9,3.5,3.6
		c0,2.1-1.5,3.3-4,3.3c-1.7,0-3.2-0.8-4.1-2.2l1.7-1.3c0.8,1.1,1.6,1.6,2.5,1.6s1.6-0.5,1.6-1.2c0-0.6-0.6-1-2-1.5
		c-2.6-0.9-3.4-1.9-3.4-3.5c0-2,1.6-3.2,3.6-3.2C277.6,33.9,279,34.4,279.9,35.5z"/>
	<path class="st1" d="M285.2,29.6v2.4h-2.6v-2.4H285.2z M285.2,34.1V45h-2.6V34.1H285.2z"/>
	<path class="st1" d="M296.8,39.5c0,3.4-1.8,5.7-4.7,5.7c-2.9,0-4.7-2.2-4.7-5.7c0-3.5,1.8-5.7,4.7-5.7S296.8,36,296.8,39.5z
		 M292,43.1c1.4,0,2.1-1.1,2.1-3.6c0-2.4-0.7-3.6-2.1-3.6c-1.5,0-2.1,1.2-2.1,3.6C289.9,42,290.6,43.1,292,43.1z"/>
	<path class="st1" d="M307.6,37.5V45H305v-7.2c0-1.2-0.4-1.8-1.3-1.8c-0.9,0-1.8,0.4-2.4,1.2V45h-2.6V34.1h2.4v1.2
		c1.3-0.9,2.4-1.4,3.4-1.4C306.5,33.9,307.6,35.3,307.6,37.5z"/>
	<path class="st1" d="M318.2,38.2v5.3c0,0.4,0,1,0.2,1.5h-2.5l-0.2-0.9c-1.1,0.8-2.2,1.2-3.4,1.2c-1.8,0-3-1.2-3-2.9
		c0-2.5,2.1-3.8,6.3-4.3v-0.9c0-0.8-0.7-1.3-1.6-1.3c-0.9,0-1.7,0.4-2.4,1.3l-1.7-1.3c0.7-1.1,2.3-2,4-2
		C317,33.9,318.2,35.1,318.2,38.2z M313.2,43.3c0.7,0,1.6-0.5,2.4-1.2v-2.4c-3,0.5-3.7,1.3-3.7,2.2
		C311.9,42.8,312.5,43.3,313.2,43.3z"/>
	<path class="st1" d="M323.7,29.8V45h-2.6V29.8H323.7z"/>
</g>
</svg>
