<?xml version="1.0" encoding="utf-8"?>
<!-- Generator: Adobe Illustrator 26.3.1, SVG Export Plug-In . SVG Version: 6.00 Build 0)  -->
<svg version="1.1" id="Layer_1" xmlns="http://www.w3.org/2000/svg" xmlns:xlink="http://www.w3.org/1999/xlink" x="0px" y="0px"
	 viewBox="0 0 578 100" style="enable-background:new 0 0 578 100;" xml:space="preserve">
<style type="text/css">
	.st0{fill:#007A33;}
	.st1{enable-background:new    ;}
	.st2{fill:#FFFFFF;}
</style>
<g id="Group_13655" transform="translate(-1196 -477)">
	<path id="Rectangle_17728" class="st0" d="M1236,477h538l-40,100h-538L1236,477z"/>
	<g class="st1">
		<path class="st2" d="M1470.6,518.3l-3.7,1.1c-0.7-2-1.6-2.9-3-2.9c-1.5,0-2.3,0.9-2.3,2.3c0,1.5,2,2.4,4,3.5
			c3.3,1.8,5.2,3.7,5.2,6.8c0,4-2.9,6.2-6.9,6.2c-3.7,0-6.1-2.1-7.1-6.1l4.1-0.9c0.4,2.3,1.7,3.5,3.2,3.5c1.5,0,2.6-1,2.6-2.6
			c0-2-2-2.9-5.1-4.6c-2.8-1.6-4.1-3.3-4.1-5.6c0-4,2.5-6.1,6.5-6.1C1467.3,513,1469.7,514.9,1470.6,518.3z"/>
		<path class="st2" d="M1478,515v4.4h2.4v3.1h-2.4v8.3c0,0.7,0.5,1.2,1.9,1.2c0.2,0,0.3,0,0.6,0v3.2c-0.7,0.1-1.5,0.1-2.1,0.1
			c-2.9,0-4.1-1.3-4.1-3.2v-9.7h-1.5v-3.1h1.5V515H1478z"/>
		<path class="st2" d="M1493.9,523.2v10.5c0,0.2,0,0.6,0.2,1.3h-3.8l-0.3-1.6c-1.1,1.1-2.6,1.9-4.5,1.9c-2.3,0-3.7-1.3-3.7-3.9
			c0-4,4-5.5,8.3-6.8v-1.2c0-1.3-0.7-2-1.9-2c-1.1,0-2.1,0.8-2.1,2h-3.8c0.3-3.4,2.7-5.1,6.1-5.1
			C1492,518.4,1493.9,520.2,1493.9,523.2z M1487.3,532.5c1.1,0,1.9-0.6,2.8-1.5v-4c-1.7,0.6-4.5,1.8-4.5,3.8
			C1485.6,531.9,1486.2,532.5,1487.3,532.5z"/>
		<path class="st2" d="M1505.3,522.5c-0.6-0.2-1.4-0.4-2-0.4c-1.1,0-1.9,0.8-1.9,1.8V535h-3.8v-16.3h3.7v2.2h0.1
			c0.9-1.6,2-2.5,3.9-2.5V522.5z"/>
		<path class="st2" d="M1511.3,515v4.4h2.4v3.1h-2.4v8.3c0,0.7,0.5,1.2,1.9,1.2c0.2,0,0.3,0,0.6,0v3.2c-0.8,0.1-1.5,0.1-2.1,0.1
			c-2.9,0-4.1-1.3-4.1-3.2v-9.7h-1.5v-3.1h1.5V515H1511.3z"/>
	</g>
</g>
</svg>
