<svg xmlns="http://www.w3.org/2000/svg" xmlns:xlink="http://www.w3.org/1999/xlink" width="2048" height="1536" viewBox="0 0 2048 1536">
  <defs>
    <clipPath id="clip-Secrion2_-_Screensaver">
      <rect width="2048" height="1536"/>
    </clipPath>
  </defs>
  <g id="Secrion2_-_Screensaver" data-name="Secrion2 - Screensaver" clip-path="url(#clip-Secrion2_-_Screensaver)">
    <text id="A_Nobel_Prize_winning_discovery" data-name="A Nobel Prize winning discovery" transform="translate(639 612)" fill="#4d4d4f" font-size="68" font-family="TradeGothicLTStd-BoldExt, Trade Gothic LT Std" font-weight="700"><tspan x="122.986" y="49">A Nobel Prize </tspan><tspan x="48.322" y="135">winning discovery</tspan></text>
    <g id="Group_13711" data-name="Group 13711" transform="translate(112.047 132.111)">
      <g id="Group_13710" data-name="Group 13710" transform="translate(23.487 29.018)">
        <path id="Path_74634" data-name="Path 74634" d="M42.5,69.418h4.213v6.026h.117c2.34-4.153,4.857-6.5,9.891-6.5v4.215c-5.269.115-8.018,3.571-10.008,9.831V99.849H42.5Z" transform="translate(-4.698 21.437)" fill="#ad1aac"/>
        <path id="Path_74635" data-name="Path 74635" d="M62.766,100.492c-8.309,0-12.466-7.022-12.466-15.8s4.157-15.8,12.466-15.8,12.466,7.022,12.466,15.8-4.155,15.8-12.466,15.8m0-27.973c-5.032,0-8.251,4.33-8.251,12.174s3.219,12.172,8.251,12.172,8.253-4.332,8.253-12.172S67.8,72.518,62.766,72.518" transform="translate(3.008 21.379)" fill="#ad1aac"/>
        <path id="Path_74636" data-name="Path 74636" d="M75.365,80.012l6.378-10.828h4.742L77.94,83.64l9.891,15.977H82.972L75.365,87.153,67.991,99.617h-4.74l9.6-15.977-8.9-14.456h4.74Z" transform="translate(15.806 21.669)" fill="#ad1aac"/>
        <path id="Path_74637" data-name="Path 74637" d="M77.048,75.327a12.461,12.461,0,0,1,11.414-6.436c5.147,0,10.531,2.457,10.531,9.13V93.353a23.543,23.543,0,0,0,.7,6.553H95.365L94.9,95.693a13.589,13.589,0,0,1-10.066,4.8c-4.682,0-8.66-2.809-8.66-8.368,0-6.672,5.092-10.008,18.609-12.408V78.078c0-4.038-2.634-5.559-6.261-5.559-4.682,0-6.965,2.692-7.784,4.74ZM94.78,83.462c-9.656,1.7-14.4,4.507-14.4,8.72,0,2.809,2.692,4.682,5.032,4.682,3.046,0,6.907-2.225,9.364-5.032Z" transform="translate(28.573 21.38)" fill="#ad1aac"/>
        <path id="Path_74638" data-name="Path 74638" d="M114.669,63.239V98.821a42.527,42.527,0,0,0,.235,6.67h-3.863l-.585-2.984a10.016,10.016,0,0,1-8.018,3.571c-5.384,0-12.464-3.63-12.464-15.8,0-11.824,7.08-15.8,12.231-15.8,2.867,0,5.676,1.465,8.016,3.4l.235.117V63.239Zm-4.213,19.078c-2.282-2.517-5.149-4.213-7.666-4.213-4.915,0-8.6,3.219-8.6,12.406,0,7.724,3.336,11.937,8.6,11.937,2.692,0,4.682-1.169,7.666-4.1Z" transform="translate(42.212 15.794)" fill="#ad1aac"/>
        <path id="Path_74639" data-name="Path 74639" d="M124.482,99.616v-4.1h-.117c-2.4,2.692-5.559,4.682-9.012,4.682-4.505,0-8.778-2.34-8.778-8.9V69.185h4.213v22c0,4.04,1.931,5.384,4.974,5.384,3.161,0,6.79-2.573,8.72-4.622V69.185H128.7V99.616Z" transform="translate(58.617 21.67)" fill="#ad1aac"/>
        <path id="Path_74640" data-name="Path 74640" d="M123.331,92.184a10.278,10.278,0,0,0,8.72,4.68c4.565,0,6.553-2.457,6.553-5.032,0-7.726-18.023-3.628-17.673-14.748.177-5.265,4.213-8.251,10.066-8.193,3.98.06,8.368,2.225,10.418,5.326l-2.927,2.575c-2.342-2.867-4.565-4.271-7.841-4.271-3.571,0-5.5,1.813-5.5,4.505,0,6.613,17.675,3.219,17.675,14.571,0,5.911-5.149,8.9-10.651,8.9A15.174,15.174,0,0,1,120,94.7Z" transform="translate(71.878 21.378)" fill="#ad1aac"/>
        <path id="Path_74641" data-name="Path 74641" d="M136.83,74.159V64.151h4.213V74.159h7.024v3.628h-7.024V99.441c0,1.406,1,2.107,3.455,2.107a23.8,23.8,0,0,0,3.744-.292v3.451a19.358,19.358,0,0,1-4.917.469c-4.565,0-6.5-1.171-6.5-5.032V77.788h-4.974V74.159Z" transform="translate(83.599 16.696)" fill="#ad1aac"/>
        <path id="Path_74642" data-name="Path 74642" d="M142.21,75.327a12.461,12.461,0,0,1,11.414-6.436c5.147,0,10.531,2.457,10.531,9.13V93.353a23.544,23.544,0,0,0,.7,6.553h-4.332l-.467-4.213a13.589,13.589,0,0,1-10.066,4.8c-4.682,0-8.66-2.809-8.66-8.368,0-6.672,5.092-10.008,18.609-12.408V78.078c0-4.038-2.634-5.559-6.261-5.559-4.682,0-6.965,2.692-7.784,4.74Zm17.732,8.136c-9.657,1.7-14.4,4.507-14.4,8.72,0,2.809,2.692,4.682,5.032,4.682,3.046,0,6.907-2.225,9.364-5.032Z" transform="translate(92.963 21.38)" fill="#ad1aac"/>
        <path id="Path_74643" data-name="Path 74643" d="M159.286,74.159V64.151H163.5V74.159h7.024v3.628H163.5V99.441c0,1.406,1,2.107,3.455,2.107a23.8,23.8,0,0,0,3.744-.292v3.451a19.358,19.358,0,0,1-4.917.469c-4.565,0-6.5-1.171-6.5-5.032V77.788h-4.974V74.159Z" transform="translate(105.789 16.696)" fill="#ad1aac"/>
        <path id="Path_74644" data-name="Path 74644" d="M185.775,47.554l38.658-16.325c7.633,5.038,12.963,11.394,14.028,17.844Z" transform="translate(136.879 -15.837)" fill="#43b02a"/>
        <path id="Path_74645" data-name="Path 74645" d="M185.321,23.495c-.137,0-.28-.008-.418-.008-18.055,0-13.229,9.734-7.815,20.019Z" transform="translate(123.424 -23.487)" fill="#ad1aac"/>
        <path id="Path_74646" data-name="Path 74646" d="M223.914,34.193a101.84,101.84,0,0,0-21.713-8.7l-20.426,22.14Z" transform="translate(132.927 -21.505)" fill="#4ec3e0"/>
        <path id="Path_74647" data-name="Path 74647" d="M177.637,50.378l24.11-24.11a102.4,102.4,0,0,0-19.371-2.75Z" transform="translate(128.838 -23.456)" fill="#ad1aac"/>
        <path id="Path_74648" data-name="Path 74648" d="M203.076,68.275a99.322,99.322,0,0,0,22.035-9.148L181.775,45.169Z" transform="translate(132.927 -2.062)" fill="#4ec3e0"/>
        <path id="Path_74649" data-name="Path 74649" d="M185.774,43.376,225.5,60.411c7.314-5.821,12.319-12.152,13.074-18.554Z" transform="translate(136.878 -5.334)" fill="#43b02a"/>
        <path id="Path_74650" data-name="Path 74650" d="M177.545,48.345c-5.581,10.6-11.207,21.021,7.362,21.021.419,0,.849-.016,1.274-.024Z" transform="translate(123.423 1.077)" fill="#ad1aac"/>
        <path id="Path_74651" data-name="Path 74651" d="M182.638,72.668a103.52,103.52,0,0,0,19.9-2.954l-24.79-24.79Z" transform="translate(128.942 -2.305)" fill="#ad1aac"/>
        <path id="Path_74652" data-name="Path 74652" d="M23.487,89.63V26.961H59.6v9.2H34.251V52.482H56.3v9.2H34.251V80.429h26.56v9.2Z" transform="translate(-23.487 -20.054)" fill="#007a33"/>
        <path id="Path_74653" data-name="Path 74653" d="M72.82,35h9.9l-14.756,46.7H58.5L43.741,35h9.9L63.01,67.979h.348Z" transform="translate(-3.474 -12.115)" fill="#007a33"/>
        <path id="Path_74654" data-name="Path 74654" d="M67.052,82.122v-46.7h9.114v4.688h.348c3.992-3.125,6.943-5.553,12.325-5.553l.869,9.806a17.609,17.609,0,0,0-3.125-.26,19.421,19.421,0,0,0-9.9,3.3V82.122Z" transform="translate(19.562 -12.546)" fill="#007a33"/>
        <path id="Path_74655" data-name="Path 74655" d="M116.262,61.465H90.569v6.77c0,5.122,2.865,6.857,7.984,6.857,4.776,0,8.074-1.042,8.074-6.684l9.635.869c-.26,10.416-7.9,13.714-17.709,13.714-11.022,0-17.619-3.907-17.619-14.929V49.747c0-11.024,6.6-15.188,17.619-15.188s17.709,4.163,17.709,15.188Zm-9.722-7.986V49.572c0-5.207-2.863-7.118-7.986-7.118s-7.984,2-7.984,7.118v3.907Z" transform="translate(33.279 -12.546)" fill="#007a33"/>
        <path id="Path_74656" data-name="Path 74656" d="M103.721,82.122v-46.7h9.114v4.6h.348c3.819-3.038,7.811-5.465,12.76-5.465,8.072,0,11.543,5.205,11.543,13.45V82.122h-9.722V50.267c0-4.513-1.127-7.205-5.64-7.205-3.04,0-6.078,2-8.768,4.34V82.122Z" transform="translate(55.797 -12.546)" fill="#007a33"/>
        <path id="Path_74657" data-name="Path 74657" d="M124.844,42.98V35h33.59V42.98L135.608,73.273v.433h23.262v7.986H124.063V73.707L146.8,43.415V42.98Z" transform="translate(75.897 -12.115)" fill="#007a33"/>
        <path id="Path_74658" data-name="Path 74658" d="M144.449,49.226c0-11.022,6.772-14.667,17.794-14.667s17.88,3.644,17.88,14.667V68.149c0,10.674-6.509,14.842-17.88,14.842s-17.794-4.167-17.794-14.842Zm9.635,19.1c0,5.122,3.038,6.77,8.159,6.77s8.157-1.734,8.157-6.77V49.313c0-5.122-3.036-6.857-8.157-6.857s-8.159,1.736-8.159,6.857Z" transform="translate(96.042 -12.546)" fill="#007a33"/>
        <path id="Path_74659" data-name="Path 74659" d="M165.157,35.84H163.1V34.571h5.625V35.84h-2.058v5.595h-1.511Z" transform="translate(114.474 -12.534)" fill="#007a33"/>
        <path id="Path_74660" data-name="Path 74660" d="M166.326,34.571h2.125l1.6,4.72h.02l1.521-4.72h2.123v6.865h-1.414V36.571h-.02L170.6,41.436h-1.163l-1.682-4.817h-.02v4.817h-1.414Z" transform="translate(117.661 -12.534)" fill="#007a33"/>
      </g>
      <path id="Polygon_1" data-name="Polygon 1" d="M222.542,45.6,206.955,17.89h31.174Z" transform="translate(181.296)"/>
    </g>
    <text id="_October_2022_Astellas_Pharma_Inc._or_its_affiliates._All_trademarks_are_the_property_of_their_respective_owners." data-name="© October 2022 Astellas Pharma Inc. or its affiliates.All trademarks are the property of their respective owners." transform="translate(1357 1427)" fill="#fff" font-size="23" font-family="TradeGothicLTStd-Bd2, Trade Gothic LT Std"><tspan x="0" y="17">© October 2022 Astellas Pharma Inc. or its affiliates.</tspan><tspan x="0" y="46">All trademarks are the property of their respective owners.</tspan></text>
    <text id="MAT-NL-EVZ-2022-00020_Date_of_preparation:_October_2022_Date_of_expiry:_October_2024" data-name="MAT-NL-EVZ-2022-00020
Date of preparation: October 2022Date of expiry: October 2024" transform="translate(136 1405)" fill="#fff" font-size="23" font-family="TradeGothicLTStd-Bd2, Trade Gothic LT Std"><tspan x="0" y="17">MAT-NL-EVZ-2022-00020</tspan><tspan x="0" y="46">Date of preparation: October 2022</tspan><tspan x="0" y="75">Date of expiry: October 2024</tspan></text>
    <g id="Group_16554" data-name="Group 16554">
      <text id="EVRENZO_roxadustat_IS_NOT_APPROVED_FOR_USE_IN_THE_UNITED_STATES" data-name="EVRENZO (roxadustat) IS NOT APPROVED FOR USE IN THE UNITED STATES" transform="translate(687 254)" fill="#fff" font-size="34" font-family="TradeGothicLTStd-Bd2, Trade Gothic LT Std"><tspan x="-354.62" y="25">EVRENZO (roxadustat) IS NOT APPROVED FOR </tspan><tspan x="-223.805" y="58">USE IN THE UNITED STATES</tspan></text>
      <text id="This_information_is_intended_for_international_audiences." data-name="This information is intended for international audiences." transform="translate(645 207)" fill="#fff" font-size="29" font-family="TradeGothicLTStd-Bd2, Trade Gothic LT Std"><tspan x="-356.453" y="21">This information is intended for international audiences.</tspan></text>
      <text id="EVRENZO_roxadustat_has_marketing_authorisations_in_Japan_the_European_Union_EU_and_the_United_Kingdom_UK_Turkey_Russia_South_Africa_Egypt_UAE_and_Kuwait." data-name="EVRENZO (roxadustat) has marketing authorisations in Japan, the European Union (EU) and the United Kingdom (UK),
Turkey, Russia, South Africa, Egypt, UAE and Kuwait." transform="translate(695 353)" fill="#fff" font-size="25" font-family="TradeGothicLTStd-Bd2, Trade Gothic LT Std"><tspan x="-337.8" y="18">EVRENZO (roxadustat) has marketing authorisations in Japan, </tspan><tspan x="-309.35" y="48">the European Union (EU) and the United Kingdom (UK),</tspan><tspan x="-292.525" y="78">Turkey, Russia, South Africa, Egypt, UAE and Kuwait.</tspan></text>
    </g>
    <g id="Group_16552" data-name="Group 16552" transform="translate(0 -26)">
      <text id="This_information_is_intended_for_international_Healthcare_Professionals_and_was_created_by_Astellas_Pharma_Inc._This_medication_is_subject_to_additional_monitoring._For_adverse_events_reporting_please_contact:_Pharmacovigilance.EST-C_astellas.com_EVRE" data-name="This information is intended for international Healthcare Professionals and was created by Astellas Pharma Inc.    This medication is subject to additional monitoring.
For adverse events reporting, please contact: Pharmacovigilance.EST-C@astellas.comEVRE" transform="translate(136 1235)" fill="#fff" font-size="23" font-family="TradeGothicLTStd-Bd2, Trade Gothic LT Std"><tspan x="0" y="17">This information is intended for international Healthcare Professionals and was created by Astellas Pharma Inc.</tspan><tspan x="0" y="51" xml:space="preserve">    This medication is subject to additional monitoring.</tspan><tspan x="0" y="85">For adverse events reporting, please contact: Pharmacovigilance.EST-C@astellas.com</tspan><tspan x="0" y="119">EVRENZO™ is only available by prescription.</tspan><tspan x="0" y="153">Prescribing information may vary. Please refer to your local prescribing information.</tspan></text>
      <path id="Polygon_2" data-name="Polygon 2" d="M10.5,0,21,19H0Z" transform="translate(157 1289) rotate(180)"/>
    </g>
  </g>
</svg>
